<?xml version="1.0" standalone="no"?>
<!DOCTYPE svg PUBLIC "-//W3C//DTD SVG 20010904//EN"
 "http://www.w3.org/TR/2001/REC-SVG-20010904/DTD/svg10.dtd">
<svg version="1.0" xmlns="http://www.w3.org/2000/svg"
 width="500.000000pt" height="500.000000pt" viewBox="0 0 500.000000 500.000000"
 preserveAspectRatio="xMidYMid meet">

<g transform="translate(0.000000,500.000000) scale(0.100000,-0.100000)"
fill="#000000" stroke="none">
<path d="M2452 3933 c-12 -2 -41 -21 -62 -42 -36 -34 -40 -43 -40 -85 0 -41 5
-53 35 -83 27 -27 41 -34 66 -31 18 2 34 9 37 15 2 9 -5 11 -27 7 -23 -5 -35
-1 -55 19 -34 34 -41 68 -22 109 21 43 63 68 115 68 33 0 49 -7 78 -34 33 -30
37 -39 41 -92 5 -80 -23 -131 -114 -207 -38 -32 -73 -67 -78 -78 -11 -23 -16
-24 -166 -37 -142 -13 -244 -43 -267 -78 -15 -24 -15 -27 4 -52 50 -67 226
-96 548 -89 215 4 264 10 338 39 31 12 50 39 41 61 -12 31 -57 37 -244 35
-164 -3 -189 -1 -213 15 -15 10 -27 27 -27 39 0 21 2 21 168 15 180 -6 312
-26 379 -58 52 -25 57 -39 30 -81 -68 -100 -396 -174 -663 -148 -150 14 -210
31 -344 97 -135 67 -194 77 -248 43 -69 -43 -99 -177 -64 -286 43 -137 193
-294 280 -294 11 0 27 -11 36 -25 15 -24 15 -25 -6 -30 -13 -2 -52 -11 -89
-19 -252 -56 -314 -161 -141 -239 148 -67 372 -97 720 -97 505 0 822 75 822
194 0 60 -80 106 -252 146 -54 12 -98 24 -98 27 0 2 11 25 24 51 58 114 91
306 79 453 -10 115 -22 74 -27 -86 -4 -166 -22 -248 -77 -357 -100 -197 -322
-285 -591 -234 -128 25 -205 62 -280 136 -38 36 -68 71 -68 76 0 6 17 19 38
28 110 50 164 162 111 230 -23 29 -55 33 -84 12 -17 -12 -22 -11 -46 15 -34
37 -60 37 -101 0 -28 -25 -33 -36 -32 -74 0 -27 13 -70 32 -111 26 -56 28 -66
14 -66 -59 2 -193 143 -231 244 -40 108 -20 240 43 282 48 31 97 22 219 -40
149 -75 235 -96 417 -103 343 -13 650 88 650 214 0 38 -59 72 -165 96 -73 17
-286 37 -386 37 -33 0 -59 4 -59 10 0 5 27 31 60 58 79 64 118 118 132 185 10
47 9 61 -6 101 -29 76 -104 116 -184 99z m-34 -517 c22 -60 54 -68 272 -64
145 2 192 -1 202 -10 49 -49 -203 -90 -482 -78 -276 11 -435 57 -389 112 24
29 217 70 344 73 38 1 42 -2 53 -33z m-394 -432 c9 -8 16 -26 16 -40 0 -30 34
-33 50 -5 5 11 20 23 32 27 50 16 58 -72 12 -133 -24 -32 -90 -73 -116 -73
-20 0 -68 111 -70 160 -1 34 3 47 21 62 28 22 35 22 55 2z"/>
<path d="M293 2214 c-2 -7 25 -119 60 -251 l64 -238 69 -3 69 -3 45 195 c25
107 48 192 51 188 3 -4 23 -74 43 -157 20 -82 41 -167 47 -187 l10 -38 67 0
67 0 63 248 c34 136 63 250 62 255 0 12 -87 8 -97 -5 -6 -7 -30 -95 -54 -196
-23 -100 -46 -179 -49 -175 -4 5 -27 87 -50 183 -24 96 -47 180 -52 186 -5 7
-33 11 -65 10 l-57 -1 -45 -192 c-24 -106 -47 -193 -50 -193 -3 0 -26 80 -50
178 -24 97 -48 185 -53 195 -7 13 -19 17 -50 15 -22 -1 -42 -7 -45 -14z"/>
<path d="M1229 2216 c-89 -31 -145 -89 -168 -172 -16 -58 -13 -107 9 -168 38
-101 132 -159 260 -160 97 -1 166 23 219 75 56 56 75 111 69 201 -7 111 -63
186 -167 223 -53 18 -172 19 -222 1z m182 -87 c40 -14 76 -44 95 -81 19 -36
18 -112 -2 -154 -61 -129 -300 -113 -345 23 -15 46 -5 117 22 155 42 58 148
84 230 57z"/>
<path d="M1687 2223 c-4 -3 -7 -118 -7 -255 l0 -248 173 0 c168 0 174 1 195
23 12 13 22 33 22 45 0 22 -3 22 -145 22 l-145 0 0 210 0 210 -43 0 c-24 0
-47 -3 -50 -7z"/>
<path d="M2090 2227 c0 -3 34 -94 76 -203 42 -110 85 -223 96 -252 l20 -53 65
3 66 3 89 230 c48 127 91 239 94 251 5 19 1 21 -46 20 l-52 -1 -72 -192 c-39
-106 -74 -195 -77 -198 -3 -3 -39 84 -80 192 l-74 198 -52 3 c-29 2 -53 1 -53
-1z"/>
<path d="M2647 2223 c-4 -3 -7 -118 -7 -255 l0 -248 23 0 c15 0 30 13 47 40
24 40 50 53 50 25 0 -8 -6 -12 -14 -9 -11 4 -46 -34 -46 -51 0 -15 28 -2 39
18 l11 22 -6 -22 -5 -23 145 0 146 0 0 45 0 45 -145 0 -145 0 0 60 c0 50 3 60
18 61 9 0 70 1 135 1 l117 -1 0 45 0 44 -135 0 -135 0 0 55 0 55 145 0 145 0
0 50 0 50 -188 0 c-104 0 -192 -3 -195 -7z"/>
<path d="M3098 2224 c-5 -4 -8 -119 -8 -256 l0 -248 50 0 50 0 0 95 0 96 77
-3 76 -3 56 -92 56 -93 53 0 c40 0 51 3 46 13 -4 6 -31 52 -62 100 -30 48 -53
89 -51 91 2 1 17 10 32 20 63 39 81 141 38 213 -33 53 -78 66 -251 71 -85 2
-158 1 -162 -4z m317 -108 c25 -18 26 -80 2 -104 -14 -13 -39 -18 -122 -20
l-105 -4 0 71 0 71 103 0 c72 0 109 -4 122 -14z"/>
<path d="M3610 1974 l0 -254 45 0 45 0 0 255 0 254 -45 -1 -45 -1 0 -253z"/>
<path d="M3777 2224 c-4 -4 -7 -119 -7 -256 l0 -248 50 0 50 0 2 202 3 201
116 -199 117 -199 71 -3 71 -3 -2 253 -3 253 -47 3 -48 3 -2 -201 -3 -201
-117 198 -116 198 -64 3 c-35 2 -67 0 -71 -4z"/>
<path d="M4317 2224 c-4 -4 -7 -119 -7 -256 l0 -248 195 0 195 0 0 45 0 45
-145 0 -145 0 0 60 c0 41 4 60 13 61 6 0 66 1 132 2 l120 2 3 43 3 42 -135 0
-136 0 0 55 0 55 146 0 145 0 -3 48 -3 47 -186 3 c-102 1 -188 -1 -192 -4z"/>
<path d="M2055 1730 c-3 -5 -1 -10 4 -10 6 0 11 5 11 10 0 6 -2 10 -4 10 -3 0
-8 -4 -11 -10z"/>
</g>
</svg>
